<svg xmlns="http://www.w3.org/2000/svg" xmlns:xlink="http://www.w3.org/1999/xlink" viewBox="0 0 401 401"><defs><style>.cls-1{fill:url(#linear-gradient);}.cls-2{fill:#ccc;}</style><linearGradient id="linear-gradient" x1="108.62" y1="1028.63" x2="320.62" y2="1240.62" gradientTransform="matrix(1, 0, 0, -1, 0, 1321)" gradientUnits="userSpaceOnUse"><stop offset="0" stop-color="#3fc345"/><stop offset="1" stop-color="#42caa7"/></linearGradient></defs><title>icon_smartinbox</title><g id="Layer_2" data-name="Layer 2"><g id="Layer_1-2" data-name="Layer 1"><g id="Layer0_8_FILL" data-name="Layer0 8 FILL"><path class="cls-1" d="M242.45,147.9a.93.93,0,0,0-.15,1,1,1,0,0,0,.9.55h42a2,2,0,0,1,1.6.8,1.83,1.83,0,0,1,.35,1.7L272.3,210.9l62.3-80.35a.93.93,0,0,0,.15-1.05,1,1,0,0,0-.9-.6h-42a1.9,1.9,0,0,1-1.55-.75,2,2,0,0,1-.4-1.7L304.8,67.5l-62.35,80.4m-10.25-7.15,8.5-11a1.81,1.81,0,0,0,.25-2.1,1.86,1.86,0,0,0-1.8-1.15H103.3a7.52,7.52,0,0,0-7.3,7.3V267a7.51,7.51,0,0,0,7.5,7.5h194A7.51,7.51,0,0,0,305,267V195.65a2,2,0,0,0-3.6-1.2l-11,14.2a1.72,1.72,0,0,0-.4,1.2V258.5a1,1,0,0,1-.3.75,1,1,0,0,1-.7.25H112a.88.88,0,0,1-1-1V153a.91.91,0,0,1,.6-.9.93.93,0,0,1,1.05.15L195.5,226.6a7.3,7.3,0,0,0,5,1.9,7.42,7.42,0,0,0,5-1.9l65.95-59.15,1.1-4.3a1.83,1.83,0,0,0-.35-1.7,2,2,0,0,0-1.6-.8l-13.9-.1L201.8,209.8a1.89,1.89,0,0,1-1.3.5,2,2,0,0,1-1.35-.5L125,143.25a.92.92,0,0,1-.25-1.1.94.94,0,0,1,1-.65h105A1.94,1.94,0,0,0,232.2,140.75Z"/></g><g id="Layer0_17_FILL" data-name="Layer0 17 FILL"><path class="cls-2" d="M200.5,0Q117.45,0,58.7,58.75T0,200.5q0,83.1,58.7,141.8T200.5,401q83.06,0,141.8-58.7T401,200.5q0-83.05-58.7-141.75T200.5,0M59.4,59.45Q117.86,1,200.5,1T341.6,59.45Q400,117.86,400,200.5T341.6,341.6Q283.15,400,200.5,400T59.4,341.6Q1,283.19,1,200.5T59.4,59.45Z"/></g></g></g></svg>